<svg xmlns="http://www.w3.org/2000/svg" viewBox="0 0 120 60" width="120" height="60"> <g>   </g> <g transform="matrix(0.8303544278136299 0 0 0.83035442781363 10.10575396155015 -10.677636246916926)"> <g transform="matrix(1 0 0 1 0 0)"> <g> <g is="lm-picture">  <g transform="matrix(0.42999997952990754 0 0 0.4299999843543919 2.2820625635189913 27.4867669301614)"> <g transform="matrix(1 0 0 1 0 0)"> <defs> <linearGradient x1="0" y1="0" x2="0" y2="1" id="gradient143" gradientTransform="rotate(-180 .5 .5)"> <stop offset="0" stop-color="#231F20" stop-opacity="1"/><stop offset="1" stop-color="#808184" stop-opacity="1"/> </linearGradient>  </defs> <path fill="url(#gradient143)" d="M 53.25 46.95Q 53.6 40.6 56 35.45 49.75 42.7 46.55 53.25 43.4 63.75 43.75 75.55 44.05 85.05 46.5 93.45 47.3 96.15 48.2 98.35 48.65 99.45 48.95 100L 52.25 89.4Q 51.6 86.1 51.15 83.3 50.6 79.55 50.35 76.3 50.05 72.45 50.1 69.35 50.25 65.9 50.85 63.15 51.15 65.6 51.65 68 52.1 69.9 52.85 72.35 53.4 74 54.2 76.05 54.85 77.65 55.5 79.05L 58.3 70.25Q 57.65 69.2 56.8 67.15 55.1 63.15 54.15 58.65 52.9 52.55 53.25 46.95 Z"/> </g><g transform="matrix(1 0 0 1 0 0)"> <defs> <linearGradient x1="0" y1="0" x2="0" y2="1" id="gradient144" gradientTransform="rotate(-90 .5 .5)"> <stop offset="0" stop-color="#231F20" stop-opacity="1"/><stop offset="1" stop-color="#808184" stop-opacity="1"/> </linearGradient>  </defs> <path fill="url(#gradient144)" d="M 84.5 68.85Q 83.8 68.85 83 68.7 81.3 68.45 79.25 67.6 76.75 66.55 74.15 64.65 70.9 62.3 67.65 58.9 63.85 54.8 60.15 49.5 65.95 60.85 72.3 69.3 77.6 76.4 82.7 80.65 86.7 84.05 90.25 85.4 92.8 86.4 94.95 86.25L 96.05 86.1 96.8 85.9 97.25 85.7 97.4 85.6 94.15 80.6Q 93.1 80.35 91.95 79.95 90.3 79.35 89.05 78.7 87.4 77.85 85.85 76.65 84 75.25 82.6 73.65 83.3 73.95 83.9 74.15L 85.1 74.55Q 85.5 74.7 86.2 74.85L 87.2 74.95 89 74.95 90.35 74.65 86.45 68.6 85.6 68.75Q 85.05 68.85 84.5 68.85 Z"/> </g><g transform="matrix(1 0 0 1 0 0)"> <defs> <linearGradient x1="0" y1="0" x2="0" y2="1" id="gradient145" gradientTransform="rotate(-360 .5 .5)"> <stop offset="0" stop-color="#231F20" stop-opacity="1"/><stop offset="1" stop-color="#808184" stop-opacity="1"/> </linearGradient>  </defs> <path fill="url(#gradient145)" d="M 83.45 39.1Q 84.25 34.7 83.55 29.9 83.05 26.7 81.9 23.5 81.6 22.55 81.2 21.65L 80.9 20.95 79.8 22.45 80.35 24.75Q 80.65 26.05 80.85 27.4 81.05 29 81.05 30.2 81.15 31.6 80.9 32.7 80.7 31.6 80.35 30.2 80.15 29.25 79.7 27.95 79.55 27.4 79 26 78.7 25.1 78.35 24.35L 76.75 26.5 77.6 28.55Q 78.55 31.15 79.15 33.8 80 37.75 79.85 41.45 79.7 46.55 77.75 51.3 82.2 45.45 83.45 39.1 Z"/> </g><g transform="matrix(1 0 0 1 0 0)"> <defs> <linearGradient x1="0" y1="0" x2="0" y2="1" id="gradient146" gradientTransform="rotate(-270 .5 .5)"> <stop offset="0" stop-color="#231F20" stop-opacity="1"/><stop offset="1" stop-color="#808184" stop-opacity="1"/> </linearGradient>  </defs> <path fill="url(#gradient146)" d="M 66.95 10.35Q 64.5 6.3 61.55 2.8 60.65 1.7 59.8 0.7L 59.1 0 59.95 3.75Q 61 5.15 61.95 6.55 63.2 8.35 64.2 9.85 65.35 11.75 66.3 13.45 67.25 15.25 67.95 16.95 67.1 15.65 66.05 14.25 65.25 13.2 64.2 11.9 63.4 11 62.45 9.9L 60.9 8.3 62 13.25 62.5 13.7Q 63.15 14.35 63.85 15.1 66 17.4 68.05 20.25 70.95 24.3 73.1 28.55 75.9 34.05 77.85 40.7 76.15 30.6 72.9 22.25 70.5 16 66.95 10.35 Z"/> </g><g transform="matrix(1 0 0 1 0 0)"> <defs> <linearGradient x1="0" y1="0" x2="0" y2="1" id="gradient147" gradientTransform="rotate(-270 .5 .5)"> <stop offset="0" stop-color="#231F20" stop-opacity="1"/><stop offset="1" stop-color="#808184" stop-opacity="1"/> </linearGradient>  </defs> <path fill="url(#gradient147)" d="M 45.55 21.45L 46.5 21.45Q 47.9 21.6 49.15 21.85 51.1 22.25 53.1 22.9 55.6 23.75 57.95 24.95 59.95 26 61.65 27.1 63.45 28.25 65.55 29.9 67.65 31.55 69.65 33.45 71.75 35.4 73.95 37.85 69.85 32.2 65.6 27.3 61.45 22.6 57.6 19.05 53.8 15.5 49.9 12.6 46.3 9.9 42.65 7.8 39.65 6.05 36.65 4.65 34.2 3.5 31.7 2.6 29.85 1.95 28.3 1.5L 27.05 1.2 32.8 7.5 37.1 9.45Q 38.3 10 39.4 10.6 40.7 11.2 41.8 11.85 43.15 12.55 44.4 13.35 46 14.3 46.95 15 48.6 16.1 49.35 16.7 50.55 17.65 51.55 18.55 49.9 17.7 48.05 16.9 46.5 16.3 44.75 15.75 43.3 15.35 41.8 15 40.6 14.75 39.25 14.6L 45.55 21.45 Z"/> </g><g transform="matrix(1 0 0 1 0 0)"> <defs> <linearGradient x1="0" y1="0" x2="0" y2="1" id="gradient148" gradientTransform="rotate(-90 .5 .5)"> <stop offset="0" stop-color="#FF8117" stop-opacity="1"/><stop offset="1" stop-color="#FFF717" stop-opacity="1"/> </linearGradient>  </defs> <path fill="url(#gradient148)" d="M 64.35 31.6Q 52.9 26.9 42 26.25 31.1 25.6 21.2 29 12.6 31.9 5.65 37.4 3.25 39.35 1.4 41.3 0.45 42.3 0 42.9L 13.45 43.75Q 16.05 41.9 18.9 40.15 22.05 38.25 25.1 36.85 28.3 35.3 31.35 34.45 34.55 33.55 37.35 33.5 35.5 34.55 33.8 35.9 32.25 37.15 30.75 38.7 29.5 40.05 28.3 41.7 27.25 43.1 26.45 44.6L 37.45 45.25Q 37.85 44 38.95 42.15 41.05 38.65 44.1 36.05 47.95 32.9 52.8 31.7 58.15 30.4 64.35 31.6 Z"/> </g><g transform="matrix(1 0 0 1 0 0)"> <defs> <linearGradient x1="0" y1="0" x2="0" y2="1" id="gradient149" gradientTransform="rotate(-270 .5 .5)"> <stop offset="0" stop-color="#231F20" stop-opacity="1"/><stop offset="1" stop-color="#808184" stop-opacity="1"/> </linearGradient>  </defs> <path fill="url(#gradient149)" d="M 86.6 48L 86.5 48.45Q 86.4 49 86.2 49.55 85.55 51.45 84.3 52.9 82.35 55 79.35 55.8 75.05 56.85 68.85 55.2 70.25 55.9 72.3 56.85 74.1 57.65 75.35 58.15 76.65 58.65 78.05 59.1 79.2 59.5 80.45 59.8 86.15 61.25 89.8 60.05 92.45 59.2 94 57.05 95.05 55.6 95.5 53.8 95.65 53.25 95.75 52.75L 95.75 52.3 93.25 51.15Q 92.85 51.8 92.4 52.4 91.7 53.2 91.1 53.7 90.3 54.4 89.45 54.75 88.45 55.15 87.35 55.1 88 54.45 88.5 53.75 88.95 53.05 89.3 52.3 89.55 51.75 89.8 50.9 89.95 50.4 90.1 49.65L 86.6 48 Z"/> </g><g transform="matrix(1 0 0 1 0 0)"> <defs> <linearGradient x1="0" y1="0" x2="0" y2="1" id="gradient150" gradientTransform="rotate(-90 .5 .5)"> <stop offset="0" stop-color="#FF8117" stop-opacity="0.8"/><stop offset="1" stop-color="#FFFFFF" stop-opacity="0.8"/> </linearGradient>  </defs> <path fill="url(#gradient150)" d="M 30.75 38.7Q 29.5 40.05 28.3 41.7 27.25 43.1 26.45 44.6L 26.95 44.6Q 28.7 41.5 30.95 38.55L 30.75 38.7 ZM 44.05 26.4L 42 26.25Q 31.1 25.6 21.2 29 12.6 31.9 5.65 37.4 3.25 39.35 1.4 41.3 0.45 42.3 0 42.9L 13.45 43.75Q 16.05 41.9 18.9 40.15 22.05 38.25 25.1 36.85 28.3 35.3 31.35 34.45 33.2 33.95 35.1 33.7 39.2 29.45 44.05 26.4 Z"/> </g><g transform="matrix(1 0 0 1 0 0)"> <defs> <linearGradient x1="0" y1="0" x2="0" y2="1" id="gradient151" gradientTransform="rotate(-360 .5 .5)"> <stop offset="0" stop-color="#FFFFFF" stop-opacity="0"/><stop offset="1" stop-color="#FFFFFF" stop-opacity="0.49803921568627"/> </linearGradient>  </defs> <path fill="url(#gradient151)" d="M 46.95 15Q 48.6 16.1 49.35 16.7 50.55 17.65 51.55 18.55 49.9 17.7 48.05 16.9 46.5 16.3 44.75 15.75 43.3 15.35 41.8 15 40.6 14.75 39.25 14.6L 45.55 21.45 46.5 21.45Q 47.9 21.6 49.15 21.85 50.75 22.15 51.85 22.5 55.3 21.2 59.05 20.4L 57.6 19.05Q 53.8 15.5 49.9 12.6 46.3 9.9 42.65 7.8 39.65 6.05 36.65 4.65 34.2 3.5 31.7 2.6 29.85 1.95 28.3 1.5L 27.05 1.2 32.8 7.5 37.1 9.45Q 38.3 10 39.4 10.6 40.7 11.2 41.8 11.85 43.15 12.55 44.4 13.35 46 14.3 46.95 15 Z"/> </g><g transform="matrix(1 0 0 1 0 0)"> <defs> <linearGradient x1="0" y1="0" x2="0" y2="1" id="gradient152" gradientTransform="rotate(-360 .5 .5)"> <stop offset="0" stop-color="#FFFFFF" stop-opacity="0"/><stop offset="1" stop-color="#FFFFFF" stop-opacity="0.49803921568627"/> </linearGradient>  </defs> <path fill="url(#gradient152)" d="M 66.95 10.35Q 64.5 6.3 61.55 2.8 60.65 1.7 59.8 0.7L 59.1 0 59.95 3.75Q 61 5.15 61.95 6.55 63.2 8.35 64.2 9.85 65.35 11.75 66.3 13.45 67.25 15.25 67.95 16.95 67.1 15.65 66.05 14.25 65.25 13.2 64.2 11.9 63.4 11 62.45 9.9L 60.9 8.3 62 13.25 62.5 13.7Q 63.15 14.35 63.85 15.1 65.8 17.2 67.55 19.55L 67.75 19.55Q 69.95 19.55 71.85 19.7 69.7 14.7 66.95 10.35 Z"/> </g> </g> </g><g is="lm-text" transform="matrix(1.308512945771403 0 0 1.3085134583867204 45.346182546767935 50.209587076225574)">   <path fill="#000000" fill-opacity="1" d="M5.166666666666666,-6.388888888888884C5.166666666666666,-6.388888888888884,5.166666666666666,-1.6111111111111063,5.166666666666666,-1.6111111111111063C5.166666666666666,-1.6111111111111063,9.5,-1.6111111111111063,9.5,-1.6111111111111063C9.5,-1.6111111111111063,9.5,-0.11111111111110628,9.5,-0.11111111111110628C9.5,-0.11111111111110628,5.166666666666666,-0.11111111111110628,5.166666666666666,-0.11111111111110628C5.166666666666666,-0.11111111111110628,5.166666666666666,6.166666666666671,5.166666666666666,6.166666666666671C5.166666666666666,6.166666666666671,3.4444444444444438,6.166666666666671,3.4444444444444438,6.166666666666671C3.4444444444444438,6.166666666666671,3.4444444444444438,-7.833333333333329,3.4444444444444438,-7.833333333333329C3.4444444444444438,-7.833333333333329,9.999999999999998,-7.833333333333329,9.999999999999998,-7.833333333333329C9.999999999999998,-7.833333333333329,9.999999999999998,-6.388888888888884,9.999999999999998,-6.388888888888884C9.999999999999998,-6.388888888888884,5.166666666666666,-6.388888888888884,5.166666666666666,-6.388888888888884C5.166666666666666,-6.388888888888884,5.166666666666666,-6.388888888888884,5.166666666666666,-6.388888888888884M15.944444444444443,-6.333333333333329C15.944444444444443,-6.333333333333329,15.944444444444443,6.166666666666671,15.944444444444443,6.166666666666671C15.944444444444443,6.166666666666671,14.222222222222221,6.166666666666671,14.222222222222221,6.166666666666671C14.222222222222221,6.166666666666671,14.222222222222221,-6.333333333333329,14.222222222222221,-6.333333333333329C14.222222222222221,-6.333333333333329,11.11111111111111,-6.333333333333329,11.11111111111111,-6.333333333333329C11.11111111111111,-6.333333333333329,11.11111111111111,-7.833333333333329,11.11111111111111,-7.833333333333329C11.11111111111111,-7.833333333333329,19.055555555555554,-7.833333333333329,19.055555555555554,-7.833333333333329C19.055555555555554,-7.833333333333329,19.055555555555554,-6.333333333333329,19.055555555555554,-6.333333333333329C19.055555555555554,-6.333333333333329,15.944444444444443,-6.333333333333329,15.944444444444443,-6.333333333333329C15.944444444444443,-6.333333333333329,15.944444444444443,-6.333333333333329,15.944444444444443,-6.333333333333329M26.555555555555554,-3.4999999999999947C26.555555555555554,-4.499999999999995,26.444444444444443,-5.277777777777773,26.166666666666664,-5.777777777777773C25.888888888888886,-6.2777777777777715,25.388888888888886,-6.55555555555555,24.666666666666664,-6.55555555555555C24.11111111111111,-6.55555555555555,23.61111111111111,-6.55555555555555,23.277777777777775,-6.499999999999995C23.055555555555554,-6.499999999999995,22.944444444444443,-6.388888888888884,22.777777777777775,-6.388888888888884C22.777777777777775,-6.388888888888884,22.777777777777775,-0.55555555555555,22.777777777777775,-0.55555555555555C22.777777777777775,-0.55555555555555,24.666666666666664,-0.55555555555555,24.666666666666664,-0.55555555555555C24.944444444444443,-0.55555555555555,25.22222222222222,-0.6111111111111063,25.444444444444443,-0.722222222222217C25.666666666666664,-0.8333333333333286,25.833333333333332,-0.9999999999999947,26,-1.222222222222217C26.166666666666664,-1.4444444444444393,26.277777777777775,-1.722222222222217,26.388888888888886,-2.1111111111111054C26.5,-2.4999999999999947,26.555555555555554,-2.9444444444444393,26.555555555555554,-3.4999999999999947C26.555555555555554,-3.4999999999999947,26.555555555555554,-3.4999999999999947,26.555555555555554,-3.4999999999999947M28.333333333333332,-3.6111111111111054C28.333333333333332,-2.8333333333333286,28.27777777777778,-2.222222222222218,28.111111111111107,-1.6666666666666616C27.944444444444443,-1.1111111111111063,27.77777777777778,-0.6111111111111063,27.444444444444443,-0.222222222222217C27.11111111111111,0.1666666666666714,26.777777777777775,0.4444444444444491,26.277777777777775,0.611111111111116C25.777777777777775,0.777777777777783,25.166666666666664,0.8888888888888937,24.444444444444443,0.8888888888888937C24.444444444444443,0.8888888888888937,22.777777777777775,0.8888888888888937,22.777777777777775,0.8888888888888937C22.777777777777775,0.8888888888888937,22.777777777777775,6.166666666666671,22.777777777777775,6.166666666666671C22.777777777777775,6.166666666666671,21.055555555555554,6.166666666666671,21.055555555555554,6.166666666666671C21.055555555555554,6.166666666666671,21.055555555555554,-7.833333333333329,21.055555555555554,-7.833333333333329C21.388888888888886,-7.833333333333329,21.72222222222222,-7.888888888888884,22.11111111111111,-7.888888888888884C22.444444444444443,-7.888888888888884,22.777777777777775,-7.944444444444439,23.166666666666664,-7.944444444444439C23.555555555555554,-7.944444444444439,24,-7.999999999999995,24.388888888888886,-7.999999999999995C25.166666666666664,-7.999999999999995,25.833333333333332,-7.888888888888884,26.333333333333332,-7.666666666666661C26.833333333333332,-7.444444444444439,27.22222222222222,-7.111111111111105,27.5,-6.722222222222216C27.77777777777778,-6.333333333333329,28.055555555555554,-5.833333333333329,28.166666666666664,-5.333333333333329C28.27777777777778,-4.833333333333329,28.333333333333332,-4.222222222222216,28.333333333333332,-3.6111111111111054C28.333333333333332,-3.6111111111111054,28.333333333333332,-3.6111111111111054,28.333333333333332,-3.6111111111111054M37.94444444444444,5.944444444444449C37.388888888888886,6.055555555555561,36.888888888888886,6.166666666666671,36.388888888888886,6.222222222222227C35.888888888888886,6.277777777777782,35.33333333333333,6.333333333333338,34.77777777777778,6.333333333333338C34,6.333333333333338,33.388888888888886,6.222222222222227,32.83333333333333,6.000000000000004C32.27777777777778,5.777777777777782,31.888888888888886,5.444444444444449,31.555555555555554,4.888888888888894C31.22222222222222,4.333333333333338,31,3.5555555555555602,30.833333333333332,2.611111111111116C30.666666666666664,1.6666666666666714,30.61111111111111,0.4444444444444491,30.61111111111111,-1.05555555555555C30.61111111111111,-2.55555555555555,30.72222222222222,-3.722222222222216,30.888888888888886,-4.611111111111105C31.055555555555554,-5.499999999999995,31.388888888888886,-6.222222222222216,31.777777777777775,-6.722222222222216C32.166666666666664,-7.222222222222216,32.61111111111111,-7.55555555555555,33.22222222222222,-7.722222222222216C33.83333333333333,-7.888888888888884,34.5,-7.999999999999995,35.27777777777778,-7.999999999999995C35.61111111111111,-7.999999999999995,36,-7.944444444444439,36.44444444444444,-7.888888888888884C36.888888888888886,-7.833333333333329,37.22222222222222,-7.722222222222216,37.5,-7.666666666666661C37.5,-7.666666666666661,37.5,-6.2777777777777715,37.5,-6.2777777777777715C37.5,-6.2777777777777715,36.22222222222222,-6.444444444444439,36.22222222222222,-6.444444444444439C36.22222222222222,-6.444444444444439,35.33333333333333,-6.499999999999995,34.888888888888886,-6.499999999999995C34.44444444444444,-6.499999999999995,34.11111111111111,-6.444444444444439,33.77777777777778,-6.333333333333329C33.44444444444444,-6.222222222222216,33.22222222222222,-5.944444444444439,33,-5.55555555555555C32.77777777777778,-5.166666666666661,32.666666666666664,-4.55555555555555,32.55555555555556,-3.8333333333333286C32.44444444444444,-3.1111111111111054,32.388888888888886,-2.1111111111111054,32.388888888888886,-0.888888888888884C32.388888888888886,0.3888888888888937,32.44444444444444,1.3333333333333384,32.55555555555556,2.111111111111116C32.666666666666664,2.8888888888888937,32.77777777777778,3.4444444444444495,32.94444444444444,3.8333333333333384C33.11111111111111,4.222222222222227,33.388888888888886,4.555555555555561,33.666666666666664,4.666666666666671C33.94444444444444,4.777777777777782,34.27777777777778,4.833333333333338,34.666666666666664,4.833333333333338C34.666666666666664,4.833333333333338,35.44444444444444,4.833333333333338,35.44444444444444,4.833333333333338C35.44444444444444,4.833333333333338,36,4.777777777777782,36.27777777777778,4.722222222222227C36.27777777777778,4.722222222222227,36.27777777777778,0.277777777777783,36.27777777777778,0.277777777777783C36.27777777777778,0.277777777777783,34.5,0.277777777777783,34.5,0.277777777777783C34.5,0.277777777777783,34.5,-1.1666666666666616,34.5,-1.1666666666666616C34.5,-1.1666666666666616,37.94444444444444,-1.1666666666666616,37.94444444444444,-1.1666666666666616C37.94444444444444,-1.1666666666666616,37.94444444444444,5.944444444444449,37.94444444444444,5.944444444444449C37.94444444444444,5.944444444444449,37.94444444444444,5.944444444444449,37.94444444444444,5.944444444444449M48.44444444444444,2.4444444444444495C48.44444444444444,3.7777777777777826,48.11111111111111,4.777777777777782,47.44444444444444,5.388888888888894C46.77777777777777,6.000000000000004,45.83333333333333,6.333333333333338,44.666666666666664,6.333333333333338C43.49999999999999,6.333333333333338,42.61111111111111,6.000000000000004,41.94444444444444,5.388888888888894C41.27777777777777,4.777777777777782,40.94444444444444,3.7777777777777826,40.94444444444444,2.4444444444444495C40.94444444444444,2.4444444444444495,40.94444444444444,-7.833333333333329,40.94444444444444,-7.833333333333329C40.94444444444444,-7.833333333333329,42.666666666666664,-7.833333333333329,42.666666666666664,-7.833333333333329C42.666666666666664,-7.833333333333329,42.666666666666664,2.8333333333333384,42.666666666666664,2.8333333333333384C42.666666666666664,3.5555555555555602,42.83333333333333,4.055555555555561,43.222222222222214,4.388888888888894C43.61111111111111,4.722222222222227,44.05555555555555,4.833333333333338,44.666666666666664,4.833333333333338C45.27777777777777,4.833333333333338,45.77777777777777,4.722222222222227,46.166666666666664,4.388888888888894C46.55555555555555,4.055555555555561,46.666666666666664,3.5555555555555602,46.666666666666664,2.8333333333333384C46.666666666666664,2.8333333333333384,46.666666666666664,-7.833333333333329,46.666666666666664,-7.833333333333329C46.666666666666664,-7.833333333333329,48.44444444444444,-7.833333333333329,48.44444444444444,-7.833333333333329C48.44444444444444,-7.833333333333329,48.44444444444444,2.4444444444444495,48.44444444444444,2.4444444444444495C48.44444444444444,2.4444444444444495,48.44444444444444,2.4444444444444495,48.44444444444444,2.4444444444444495M50.888888888888886,6.166666666666671C50.888888888888886,6.166666666666671,50.888888888888886,4.722222222222227,50.888888888888886,4.722222222222227C50.888888888888886,4.722222222222227,52.27777777777778,4.722222222222227,52.27777777777778,4.722222222222227C52.27777777777778,4.722222222222227,52.27777777777778,-6.388888888888884,52.27777777777778,-6.388888888888884C52.27777777777778,-6.388888888888884,50.888888888888886,-6.388888888888884,50.888888888888886,-6.388888888888884C50.888888888888886,-6.388888888888884,50.888888888888886,-7.833333333333329,50.888888888888886,-7.833333333333329C50.888888888888886,-7.833333333333329,55.44444444444444,-7.833333333333329,55.44444444444444,-7.833333333333329C55.44444444444444,-7.833333333333329,55.44444444444444,-6.388888888888884,55.44444444444444,-6.388888888888884C55.44444444444444,-6.388888888888884,54.05555555555556,-6.388888888888884,54.05555555555556,-6.388888888888884C54.05555555555556,-6.388888888888884,54.05555555555556,4.722222222222227,54.05555555555556,4.722222222222227C54.05555555555556,4.722222222222227,55.44444444444444,4.722222222222227,55.44444444444444,4.722222222222227C55.44444444444444,4.722222222222227,55.44444444444444,6.166666666666671,55.44444444444444,6.166666666666671C55.44444444444444,6.166666666666671,50.888888888888886,6.166666666666671,50.888888888888886,6.166666666666671C50.888888888888886,6.166666666666671,50.888888888888886,6.166666666666671,50.888888888888886,6.166666666666671"/> </g> </g> </g> </g> </svg>