<svg xmlns="http://www.w3.org/2000/svg" viewBox="0 0 4000 3120" width="4000" height="3120"> <g>  <rect x="0" y="0" width="100%" height="100%" fill="#ffffff" fill-opacity="1"/> </g> <g transform="matrix(31.807257703220667 0 0 31.807257703220667 -862.6531932898602 -817.1576484643338)"> <g transform="matrix(1 0 0 1 0 0)"> <g> <g is="lm-picture">  <g transform="matrix(0.43000000000000005 0 0 0.43 69.059 35.5)"> <g transform="matrix(1 0 0 1 0 0)"> <defs> <linearGradient x1="0" y1="0" x2="0" y2="1" id="gradient130" gradientTransform="rotate(-180 .5 .5)"> <stop offset="0" stop-color="#231F20" stop-opacity="1"/><stop offset="1" stop-color="#808184" stop-opacity="1"/> </linearGradient>  </defs> <path fill="url(#gradient130)" d="M 53.25 46.95Q 53.6 40.6 56 35.45 49.75 42.7 46.55 53.25 43.4 63.75 43.75 75.55 44.05 85.05 46.5 93.45 47.3 96.15 48.2 98.35 48.65 99.45 48.95 100L 52.25 89.4Q 51.6 86.1 51.15 83.3 50.6 79.55 50.35 76.3 50.05 72.45 50.1 69.35 50.25 65.9 50.85 63.15 51.15 65.6 51.65 68 52.1 69.9 52.85 72.35 53.4 74 54.2 76.05 54.85 77.65 55.5 79.05L 58.3 70.25Q 57.65 69.2 56.8 67.15 55.1 63.15 54.15 58.65 52.9 52.55 53.25 46.95 Z"/> </g><g transform="matrix(1 0 0 1 0 0)"> <defs> <linearGradient x1="0" y1="0" x2="0" y2="1" id="gradient131" gradientTransform="rotate(-90 .5 .5)"> <stop offset="0" stop-color="#231F20" stop-opacity="1"/><stop offset="1" stop-color="#808184" stop-opacity="1"/> </linearGradient>  </defs> <path fill="url(#gradient131)" d="M 84.5 68.85Q 83.8 68.85 83 68.7 81.3 68.45 79.25 67.6 76.75 66.55 74.15 64.65 70.9 62.3 67.65 58.9 63.85 54.8 60.15 49.5 65.95 60.85 72.3 69.3 77.6 76.4 82.7 80.65 86.7 84.05 90.25 85.4 92.8 86.4 94.95 86.25L 96.05 86.1 96.8 85.9 97.25 85.7 97.4 85.6 94.15 80.6Q 93.1 80.35 91.95 79.95 90.3 79.35 89.05 78.7 87.4 77.85 85.85 76.65 84 75.25 82.6 73.65 83.3 73.95 83.9 74.15L 85.1 74.55Q 85.5 74.7 86.2 74.85L 87.2 74.95 89 74.95 90.35 74.65 86.45 68.6 85.6 68.75Q 85.05 68.85 84.5 68.85 Z"/> </g><g transform="matrix(1 0 0 1 0 0)"> <defs> <linearGradient x1="0" y1="0" x2="0" y2="1" id="gradient132" gradientTransform="rotate(-360 .5 .5)"> <stop offset="0" stop-color="#231F20" stop-opacity="1"/><stop offset="1" stop-color="#808184" stop-opacity="1"/> </linearGradient>  </defs> <path fill="url(#gradient132)" d="M 83.45 39.1Q 84.25 34.7 83.55 29.9 83.05 26.7 81.9 23.5 81.6 22.55 81.2 21.65L 80.9 20.95 79.8 22.45 80.35 24.75Q 80.65 26.05 80.85 27.4 81.05 29 81.05 30.2 81.15 31.6 80.9 32.7 80.7 31.6 80.35 30.2 80.15 29.25 79.7 27.95 79.55 27.4 79 26 78.7 25.1 78.35 24.35L 76.75 26.5 77.6 28.55Q 78.55 31.15 79.15 33.8 80 37.75 79.85 41.45 79.7 46.55 77.75 51.3 82.2 45.45 83.45 39.1 Z"/> </g><g transform="matrix(1 0 0 1 0 0)"> <defs> <linearGradient x1="0" y1="0" x2="0" y2="1" id="gradient133" gradientTransform="rotate(-270 .5 .5)"> <stop offset="0" stop-color="#231F20" stop-opacity="1"/><stop offset="1" stop-color="#808184" stop-opacity="1"/> </linearGradient>  </defs> <path fill="url(#gradient133)" d="M 66.95 10.35Q 64.5 6.3 61.55 2.8 60.65 1.7 59.8 0.7L 59.1 0 59.95 3.75Q 61 5.15 61.95 6.55 63.2 8.35 64.2 9.85 65.35 11.75 66.3 13.45 67.25 15.25 67.95 16.95 67.1 15.65 66.05 14.25 65.25 13.2 64.2 11.9 63.4 11 62.45 9.9L 60.9 8.3 62 13.25 62.5 13.7Q 63.15 14.35 63.85 15.1 66 17.4 68.05 20.25 70.95 24.3 73.1 28.55 75.9 34.05 77.85 40.7 76.15 30.6 72.9 22.25 70.5 16 66.95 10.35 Z"/> </g><g transform="matrix(1 0 0 1 0 0)"> <defs> <linearGradient x1="0" y1="0" x2="0" y2="1" id="gradient134" gradientTransform="rotate(-270 .5 .5)"> <stop offset="0" stop-color="#231F20" stop-opacity="1"/><stop offset="1" stop-color="#808184" stop-opacity="1"/> </linearGradient>  </defs> <path fill="url(#gradient134)" d="M 45.55 21.45L 46.5 21.45Q 47.9 21.6 49.15 21.85 51.1 22.25 53.1 22.9 55.6 23.75 57.95 24.95 59.95 26 61.65 27.1 63.45 28.25 65.55 29.9 67.65 31.55 69.65 33.45 71.75 35.4 73.95 37.85 69.85 32.2 65.6 27.3 61.45 22.6 57.6 19.05 53.8 15.5 49.9 12.6 46.3 9.9 42.65 7.8 39.65 6.05 36.65 4.65 34.2 3.5 31.7 2.6 29.85 1.95 28.3 1.5L 27.05 1.2 32.8 7.5 37.1 9.45Q 38.3 10 39.4 10.6 40.7 11.2 41.8 11.85 43.15 12.55 44.4 13.35 46 14.3 46.95 15 48.6 16.1 49.35 16.7 50.55 17.65 51.55 18.55 49.9 17.7 48.05 16.9 46.5 16.3 44.75 15.75 43.3 15.35 41.8 15 40.6 14.75 39.25 14.6L 45.55 21.45 Z"/> </g><g transform="matrix(1 0 0 1 0 0)"> <defs> <linearGradient x1="0" y1="0" x2="0" y2="1" id="gradient135" gradientTransform="rotate(-90 .5 .5)"> <stop offset="0" stop-color="#FF8117" stop-opacity="1"/><stop offset="1" stop-color="#FFF717" stop-opacity="1"/> </linearGradient>  </defs> <path fill="url(#gradient135)" d="M 64.35 31.6Q 52.9 26.9 42 26.25 31.1 25.6 21.2 29 12.6 31.9 5.65 37.4 3.25 39.35 1.4 41.3 0.45 42.3 0 42.9L 13.45 43.75Q 16.05 41.9 18.9 40.15 22.05 38.25 25.1 36.85 28.3 35.3 31.35 34.45 34.55 33.55 37.35 33.5 35.5 34.55 33.8 35.9 32.25 37.15 30.75 38.7 29.5 40.05 28.3 41.7 27.25 43.1 26.45 44.6L 37.45 45.25Q 37.85 44 38.95 42.15 41.05 38.65 44.1 36.05 47.95 32.9 52.8 31.7 58.15 30.4 64.35 31.6 Z"/> </g><g transform="matrix(1 0 0 1 0 0)"> <defs> <linearGradient x1="0" y1="0" x2="0" y2="1" id="gradient136" gradientTransform="rotate(-270 .5 .5)"> <stop offset="0" stop-color="#231F20" stop-opacity="1"/><stop offset="1" stop-color="#808184" stop-opacity="1"/> </linearGradient>  </defs> <path fill="url(#gradient136)" d="M 86.6 48L 86.5 48.45Q 86.4 49 86.2 49.55 85.55 51.45 84.3 52.9 82.35 55 79.35 55.8 75.05 56.85 68.85 55.2 70.25 55.9 72.3 56.85 74.1 57.65 75.35 58.15 76.65 58.65 78.05 59.1 79.2 59.5 80.45 59.8 86.15 61.25 89.8 60.05 92.45 59.2 94 57.05 95.05 55.6 95.5 53.8 95.65 53.25 95.75 52.75L 95.75 52.3 93.25 51.15Q 92.85 51.8 92.4 52.4 91.7 53.2 91.1 53.7 90.3 54.4 89.45 54.75 88.45 55.15 87.35 55.1 88 54.45 88.5 53.75 88.95 53.05 89.3 52.3 89.55 51.75 89.8 50.9 89.95 50.4 90.1 49.65L 86.6 48 Z"/> </g><g transform="matrix(1 0 0 1 0 0)"> <defs> <linearGradient x1="0" y1="0" x2="0" y2="1" id="gradient137" gradientTransform="rotate(-90 .5 .5)"> <stop offset="0" stop-color="#FF8117" stop-opacity="0.8"/><stop offset="1" stop-color="#FFFFFF" stop-opacity="0.8"/> </linearGradient>  </defs> <path fill="url(#gradient137)" d="M 30.75 38.7Q 29.5 40.05 28.3 41.7 27.25 43.1 26.45 44.6L 26.95 44.6Q 28.7 41.5 30.95 38.55L 30.75 38.7 ZM 44.05 26.4L 42 26.25Q 31.1 25.6 21.2 29 12.6 31.9 5.65 37.4 3.25 39.35 1.4 41.3 0.45 42.3 0 42.9L 13.45 43.75Q 16.05 41.9 18.9 40.15 22.05 38.25 25.1 36.85 28.3 35.3 31.35 34.45 33.2 33.95 35.1 33.7 39.2 29.45 44.05 26.4 Z"/> </g><g transform="matrix(1 0 0 1 0 0)"> <defs> <linearGradient x1="0" y1="0" x2="0" y2="1" id="gradient138" gradientTransform="rotate(-360 .5 .5)"> <stop offset="0" stop-color="#FFFFFF" stop-opacity="0"/><stop offset="1" stop-color="#FFFFFF" stop-opacity="0.49803921568627"/> </linearGradient>  </defs> <path fill="url(#gradient138)" d="M 46.95 15Q 48.6 16.1 49.35 16.7 50.55 17.65 51.55 18.55 49.9 17.7 48.05 16.9 46.5 16.3 44.75 15.75 43.3 15.35 41.8 15 40.6 14.75 39.25 14.6L 45.55 21.45 46.5 21.45Q 47.9 21.6 49.15 21.85 50.75 22.15 51.85 22.5 55.3 21.2 59.05 20.4L 57.6 19.05Q 53.8 15.5 49.9 12.6 46.3 9.9 42.65 7.8 39.65 6.05 36.65 4.65 34.2 3.5 31.7 2.6 29.85 1.95 28.3 1.5L 27.05 1.2 32.8 7.5 37.1 9.45Q 38.3 10 39.4 10.6 40.7 11.2 41.8 11.85 43.15 12.55 44.4 13.35 46 14.3 46.95 15 Z"/> </g><g transform="matrix(1 0 0 1 0 0)"> <defs> <linearGradient x1="0" y1="0" x2="0" y2="1" id="gradient139" gradientTransform="rotate(-360 .5 .5)"> <stop offset="0" stop-color="#FFFFFF" stop-opacity="0"/><stop offset="1" stop-color="#FFFFFF" stop-opacity="0.49803921568627"/> </linearGradient>  </defs> <path fill="url(#gradient139)" d="M 66.95 10.35Q 64.5 6.3 61.55 2.8 60.65 1.7 59.8 0.7L 59.1 0 59.95 3.75Q 61 5.15 61.95 6.55 63.2 8.35 64.2 9.85 65.35 11.75 66.3 13.45 67.25 15.25 67.95 16.95 67.1 15.65 66.05 14.25 65.25 13.2 64.2 11.9 63.4 11 62.45 9.9L 60.9 8.3 62 13.25 62.5 13.7Q 63.15 14.35 63.85 15.1 65.8 17.2 67.55 19.55L 67.75 19.55Q 69.95 19.55 71.85 19.7 69.7 14.7 66.95 10.35 Z"/> </g> </g> </g><g is="lm-text" transform="matrix(1.3910775417051569 0 0 1.3910775417051569 35.902841927946525 106.74800304298212)">   <path fill="#000000" fill-opacity="1" d="M2.9444444444444455,-8.805555555555557C2.9444444444444455,-8.805555555555557,13.166666666666668,-8.805555555555557,13.166666666666668,-8.805555555555557C13.166666666666668,-8.805555555555557,13.166666666666668,-6.805555555555557,13.166666666666668,-6.805555555555557C13.166666666666668,-6.805555555555557,4.9444444444444455,-6.805555555555557,4.9444444444444455,-6.805555555555557C4.9444444444444455,-6.805555555555557,4.9444444444444455,-2.805555555555557,4.9444444444444455,-2.805555555555557C4.9444444444444455,-2.805555555555557,11.944444444444445,-2.805555555555557,11.944444444444445,-2.805555555555557C11.944444444444445,-2.805555555555557,11.944444444444445,-0.8055555555555571,11.944444444444445,-0.8055555555555571C11.944444444444445,-0.8055555555555571,4.9444444444444455,-0.8055555555555571,4.9444444444444455,-0.8055555555555571C4.9444444444444455,-0.8055555555555571,4.9444444444444455,5.194444444444443,4.9444444444444455,5.194444444444443C4.9444444444444455,5.194444444444443,2.9444444444444455,5.194444444444443,2.9444444444444455,5.194444444444443C2.9444444444444455,5.194444444444443,2.9444444444444455,-8.805555555555557,2.9444444444444455,-8.805555555555557C2.9444444444444455,-8.805555555555557,2.9444444444444455,-8.805555555555557,2.9444444444444455,-8.805555555555557M14.72222222222222,-8.805555555555557C14.72222222222222,-8.805555555555557,25.888888888888886,-8.805555555555557,25.888888888888886,-8.805555555555557C25.888888888888886,-8.805555555555557,25.888888888888886,-6.805555555555557,25.888888888888886,-6.805555555555557C25.888888888888886,-6.805555555555557,21.33333333333333,-6.805555555555557,21.33333333333333,-6.805555555555557C21.33333333333333,-6.805555555555557,21.33333333333333,5.194444444444443,21.33333333333333,5.194444444444443C21.33333333333333,5.194444444444443,19.333333333333332,5.194444444444443,19.333333333333332,5.194444444444443C19.333333333333332,5.194444444444443,19.333333333333332,-6.805555555555557,19.333333333333332,-6.805555555555557C19.333333333333332,-6.805555555555557,14.72222222222222,-6.805555555555557,14.72222222222222,-6.805555555555557C14.72222222222222,-6.805555555555557,14.72222222222222,-8.805555555555557,14.72222222222222,-8.805555555555557C14.72222222222222,-8.805555555555557,14.72222222222222,-8.805555555555557,14.72222222222222,-8.805555555555557M28.27777777777778,5.194444444444443C28.27777777777778,5.194444444444443,28.27777777777778,-8.805555555555557,28.27777777777778,-8.805555555555557C28.27777777777778,-8.805555555555557,35.94444444444444,-8.805555555555557,35.94444444444444,-8.805555555555557C38.22222222222222,-8.805555555555557,39.388888888888886,-7.694444444444445,39.388888888888886,-5.416666666666668C39.388888888888886,-5.416666666666668,39.388888888888886,-3.416666666666668,39.388888888888886,-3.416666666666668C39.388888888888886,-1.1388888888888902,38.22222222222222,-0.027777777777779455,35.94444444444444,-0.027777777777779455C35.94444444444444,-0.027777777777779455,30.27777777777778,-0.027777777777779455,30.27777777777778,-0.027777777777779455C30.27777777777778,-0.027777777777779455,30.27777777777778,5.194444444444443,30.27777777777778,5.194444444444443C30.27777777777778,5.194444444444443,28.27777777777778,5.194444444444443,28.27777777777778,5.194444444444443C28.27777777777778,5.194444444444443,28.27777777777778,5.194444444444443,28.27777777777778,5.194444444444443M30.27777777777778,-2.0277777777777786C30.27777777777778,-2.0277777777777786,35.83333333333333,-2.0277777777777786,35.83333333333333,-2.0277777777777786C36.388888888888886,-2.0277777777777786,36.77777777777778,-2.13888888888889,37,-2.3611111111111125C37.22222222222222,-2.583333333333335,37.33333333333333,-2.972222222222223,37.33333333333333,-3.5277777777777786C37.33333333333333,-3.5277777777777786,37.33333333333333,-5.305555555555557,37.33333333333333,-5.305555555555557C37.33333333333333,-5.8611111111111125,37.22222222222222,-6.250000000000002,37,-6.472222222222223C36.77777777777778,-6.694444444444445,36.388888888888886,-6.805555555555557,35.83333333333333,-6.805555555555557C35.83333333333333,-6.805555555555557,30.27777777777778,-6.805555555555557,30.27777777777778,-6.805555555555557C30.27777777777778,-6.805555555555557,30.27777777777778,-2.0277777777777786,30.27777777777778,-2.0277777777777786C30.27777777777778,-2.0277777777777786,30.27777777777778,-2.0277777777777786,30.27777777777778,-2.0277777777777786M42.11111111111111,-6.805555555555557C42.11111111111111,-7.083333333333334,42.166666666666664,-7.3611111111111125,42.27777777777777,-7.583333333333334C42.388888888888886,-7.805555555555557,42.55555555555555,-8.027777777777779,42.722222222222214,-8.194444444444445C42.888888888888886,-8.361111111111112,43.11111111111111,-8.527777777777779,43.33333333333333,-8.63888888888889C43.55555555555555,-8.75,43.83333333333333,-8.805555555555557,44.11111111111111,-8.805555555555557C44.11111111111111,-8.805555555555557,51.722222222222214,-8.805555555555557,51.722222222222214,-8.805555555555557C51.99999999999999,-8.805555555555557,52.27777777777777,-8.75,52.49999999999999,-8.63888888888889C52.722222222222214,-8.527777777777779,52.99999999999999,-8.361111111111112,53.16666666666666,-8.194444444444445C53.33333333333333,-8.027777777777779,53.44444444444444,-7.805555555555557,53.55555555555555,-7.583333333333334C53.66666666666666,-7.3611111111111125,53.722222222222214,-7.083333333333334,53.722222222222214,-6.805555555555557C53.722222222222214,-6.805555555555557,53.722222222222214,-5.027777777777779,53.722222222222214,-5.027777777777779C53.722222222222214,-5.027777777777779,51.722222222222214,-5.027777777777779,51.722222222222214,-5.027777777777779C51.722222222222214,-5.027777777777779,51.722222222222214,-6.805555555555557,51.722222222222214,-6.805555555555557C51.722222222222214,-6.805555555555557,44.11111111111111,-6.805555555555557,44.11111111111111,-6.805555555555557C44.11111111111111,-6.805555555555557,44.11111111111111,3.194444444444443,44.11111111111111,3.194444444444443C44.11111111111111,3.194444444444443,51.722222222222214,3.194444444444443,51.722222222222214,3.194444444444443C51.722222222222214,3.194444444444443,51.722222222222214,-0.19444444444444553,51.722222222222214,-0.19444444444444553C51.722222222222214,-0.19444444444444553,47.94444444444444,-0.19444444444444553,47.94444444444444,-0.19444444444444553C47.94444444444444,-0.19444444444444553,47.94444444444444,-2.1944444444444455,47.94444444444444,-2.1944444444444455C47.94444444444444,-2.1944444444444455,53.722222222222214,-2.1944444444444455,53.722222222222214,-2.1944444444444455C53.722222222222214,-2.1944444444444455,53.722222222222214,3.194444444444443,53.722222222222214,3.194444444444443C53.722222222222214,3.4722222222222205,53.66666666666666,3.7499999999999982,53.55555555555555,3.9722222222222205C53.44444444444444,4.194444444444443,53.33333333333333,4.416666666666665,53.16666666666666,4.583333333333332C52.99999999999999,4.749999999999998,52.722222222222214,4.916666666666665,52.49999999999999,5.027777777777776C52.27777777777777,5.1388888888888875,51.99999999999999,5.194444444444443,51.722222222222214,5.194444444444443C51.722222222222214,5.194444444444443,44.11111111111111,5.194444444444443,44.11111111111111,5.194444444444443C43.83333333333333,5.194444444444443,43.55555555555555,5.1388888888888875,43.33333333333333,5.027777777777776C43.11111111111111,4.916666666666665,42.888888888888886,4.749999999999998,42.722222222222214,4.583333333333332C42.55555555555555,4.416666666666665,42.388888888888886,4.194444444444443,42.27777777777777,3.9722222222222205C42.166666666666664,3.7499999999999982,42.11111111111111,3.4722222222222205,42.11111111111111,3.194444444444443C42.11111111111111,3.194444444444443,42.11111111111111,-6.805555555555557,42.11111111111111,-6.805555555555557C42.11111111111111,-6.805555555555557,42.11111111111111,-6.805555555555557,42.11111111111111,-6.805555555555557M57.27777777777777,-8.805555555555557C57.27777777777777,-8.805555555555557,59.27777777777777,-8.805555555555557,59.27777777777777,-8.805555555555557C59.27777777777777,-8.805555555555557,59.27777777777777,3.194444444444443,59.27777777777777,3.194444444444443C59.27777777777777,3.194444444444443,67.27777777777777,3.194444444444443,67.27777777777777,3.194444444444443C67.27777777777777,3.194444444444443,67.27777777777777,-8.805555555555557,67.27777777777777,-8.805555555555557C67.27777777777777,-8.805555555555557,69.27777777777777,-8.805555555555557,69.27777777777777,-8.805555555555557C69.27777777777777,-8.805555555555557,69.27777777777777,3.194444444444443,69.27777777777777,3.194444444444443C69.27777777777777,3.4722222222222205,69.27777777777777,3.7499999999999982,69.16666666666666,3.9722222222222205C69.05555555555554,4.194444444444443,68.88888888888889,4.416666666666665,68.72222222222221,4.583333333333332C68.55555555555554,4.749999999999998,68.27777777777777,4.916666666666665,68.05555555555554,5.027777777777776C67.83333333333333,5.1388888888888875,67.55555555555554,5.194444444444443,67.27777777777777,5.194444444444443C67.27777777777777,5.194444444444443,59.27777777777777,5.194444444444443,59.27777777777777,5.194444444444443C58.99999999999999,5.194444444444443,58.722222222222214,5.1388888888888875,58.49999999999999,5.027777777777776C58.27777777777777,4.916666666666665,58.05555555555555,4.749999999999998,57.88888888888888,4.583333333333332C57.722222222222214,4.416666666666665,57.55555555555555,4.194444444444443,57.444444444444436,3.9722222222222205C57.33333333333333,3.7499999999999982,57.27777777777777,3.4722222222222205,57.27777777777777,3.194444444444443C57.27777777777777,3.194444444444443,57.27777777777777,-8.805555555555557,57.27777777777777,-8.805555555555557C57.27777777777777,-8.805555555555557,57.27777777777777,-8.805555555555557,57.27777777777777,-8.805555555555557M74.83333333333331,-8.805555555555557C74.83333333333331,-8.805555555555557,74.83333333333331,5.194444444444443,74.83333333333331,5.194444444444443C74.83333333333331,5.194444444444443,72.83333333333331,5.194444444444443,72.83333333333331,5.194444444444443C72.83333333333331,5.194444444444443,72.83333333333331,-8.805555555555557,72.83333333333331,-8.805555555555557C72.83333333333331,-8.805555555555557,74.83333333333331,-8.805555555555557,74.83333333333331,-8.805555555555557C74.83333333333331,-8.805555555555557,74.83333333333331,-8.805555555555557,74.83333333333331,-8.805555555555557"/> </g> </g> </g> </g> </svg>